<?xml version="1.0" encoding="UTF-8" standalone="no"?>
<!DOCTYPE svg PUBLIC "-//W3C//DTD SVG 1.1//EN"
 "http://www.w3.org/Graphics/SVG/1.1/DTD/svg11.dtd">
<!-- Generated by graphviz version 2.38.0 (20140413.2041)
 -->
<!-- Title: %3 Pages: 1 -->
<svg width="350pt" height="434pt"
 viewBox="0.00 0.00 350.00 434.00" xmlns="http://www.w3.org/2000/svg" xmlns:xlink="http://www.w3.org/1999/xlink">
<g id="graph0" class="graph" transform="scale(1 1) rotate(0) translate(4 430)">
<title>%3</title>
<polygon fill="white" stroke="none" points="-4,4 -4,-430 346,-430 346,4 -4,4"/>
<!-- packages -->
<g id="node1" class="node"><title>packages</title>
<polygon fill="none" stroke="black" points="219,-426 153,-426 153,-360 219,-360 219,-426"/>
<text text-anchor="middle" x="186" y="-389.3" font-family="Times,serif" font-size="14.00">packages</text>
</g>
<!-- com.adwo.adsdk -->
<g id="node2" class="node"><title>com.adwo.adsdk</title>
<ellipse fill="none" stroke="black" cx="186" cy="-306" rx="70.6878" ry="18"/>
<text text-anchor="middle" x="186" y="-302.3" font-family="Times,serif" font-size="14.00">com.adwo.adsdk</text>
</g>
<!-- packages&#45;&#45;com.adwo.adsdk -->
<g id="edge1" class="edge"><title>packages&#45;&#45;com.adwo.adsdk</title>
<path fill="none" stroke="black" d="M186,-359.865C186,-347.83 186,-334.614 186,-324.406"/>
</g>
<!-- filecom.adwo.adsdk -->
<g id="node3" class="node"><title>filecom.adwo.adsdk</title>
<ellipse fill="none" stroke="black" cx="186" cy="-234" rx="27" ry="18"/>
<text text-anchor="middle" x="186" y="-230.3" font-family="Times,serif" font-size="14.00">file</text>
</g>
<!-- com.adwo.adsdk&#45;&#45;filecom.adwo.adsdk -->
<g id="edge2" class="edge"><title>com.adwo.adsdk&#45;&#45;filecom.adwo.adsdk</title>
<path fill="none" stroke="black" d="M186,-287.697C186,-276.846 186,-262.917 186,-252.104"/>
</g>
<!-- Ecom.adwo.adsdk -->
<g id="node5" class="node"><title>Ecom.adwo.adsdk</title>
<ellipse fill="red" stroke="black" cx="157" cy="-162" rx="27" ry="18"/>
<text text-anchor="middle" x="157" y="-158.3" font-family="Times,serif" font-size="14.00">E</text>
</g>
<!-- filecom.adwo.adsdk&#45;&#45;Ecom.adwo.adsdk -->
<g id="edge4" class="edge"><title>filecom.adwo.adsdk&#45;&#45;Ecom.adwo.adsdk</title>
<path fill="none" stroke="black" d="M179.127,-216.411C174.505,-205.252 168.436,-190.604 163.823,-179.47"/>
</g>
<!-- ncom.adwo.adsdk -->
<g id="node6" class="node"><title>ncom.adwo.adsdk</title>
<ellipse fill="red" stroke="black" cx="27" cy="-18" rx="27" ry="18"/>
<text text-anchor="middle" x="27" y="-14.3" font-family="Times,serif" font-size="14.00">n</text>
</g>
<!-- filecom.adwo.adsdk&#45;&#45;ncom.adwo.adsdk -->
<g id="edge7" class="edge"><title>filecom.adwo.adsdk&#45;&#45;ncom.adwo.adsdk</title>
<path fill="none" stroke="black" d="M164.174,-223.346C145.869,-214.336 120.057,-199.379 103,-180 63.7894,-135.453 40.6447,-67.1641 31.523,-35.8037"/>
</g>
<!-- ycom.adwo.adsdk -->
<g id="node7" class="node"><title>ycom.adwo.adsdk</title>
<ellipse fill="red" stroke="black" cx="99" cy="-18" rx="27" ry="18"/>
<text text-anchor="middle" x="99" y="-14.3" font-family="Times,serif" font-size="14.00">y</text>
</g>
<!-- filecom.adwo.adsdk&#45;&#45;ycom.adwo.adsdk -->
<g id="edge10" class="edge"><title>filecom.adwo.adsdk&#45;&#45;ycom.adwo.adsdk</title>
<path fill="none" stroke="black" d="M165.453,-221.943C150.543,-212.77 131.259,-198.286 121,-180 94.7735,-133.253 95.3584,-67.2106 97.4032,-36.2645"/>
</g>
<!-- bcom.adwo.adsdk -->
<g id="node8" class="node"><title>bcom.adwo.adsdk</title>
<ellipse fill="red" stroke="black" cx="171" cy="-18" rx="27" ry="18"/>
<text text-anchor="middle" x="171" y="-14.3" font-family="Times,serif" font-size="14.00">b</text>
</g>
<!-- filecom.adwo.adsdk&#45;&#45;bcom.adwo.adsdk -->
<g id="edge13" class="edge"><title>filecom.adwo.adsdk&#45;&#45;bcom.adwo.adsdk</title>
<path fill="none" stroke="black" d="M190.178,-215.831C196.721,-186.122 207.509,-123.377 196,-72 193.064,-58.8955 186.509,-45.214 180.848,-35.0345"/>
</g>
<!-- Rcom.adwo.adsdk -->
<g id="node9" class="node"><title>Rcom.adwo.adsdk</title>
<ellipse fill="yellow" stroke="black" cx="243" cy="-18" rx="27" ry="18"/>
<text text-anchor="middle" x="243" y="-14.3" font-family="Times,serif" font-size="14.00">R</text>
</g>
<!-- filecom.adwo.adsdk&#45;&#45;Rcom.adwo.adsdk -->
<g id="edge16" class="edge"><title>filecom.adwo.adsdk&#45;&#45;Rcom.adwo.adsdk</title>
<path fill="none" stroke="black" d="M195.779,-216.826C201.571,-206.593 208.613,-192.906 213,-180 230.204,-129.391 238.319,-66.2858 241.416,-36.3317"/>
</g>
<!-- mcom.adwo.adsdk -->
<g id="node10" class="node"><title>mcom.adwo.adsdk</title>
<ellipse fill="yellow" stroke="black" cx="315" cy="-18" rx="27" ry="18"/>
<text text-anchor="middle" x="315" y="-14.3" font-family="Times,serif" font-size="14.00">m</text>
</g>
<!-- filecom.adwo.adsdk&#45;&#45;mcom.adwo.adsdk -->
<g id="edge19" class="edge"><title>filecom.adwo.adsdk&#45;&#45;mcom.adwo.adsdk</title>
<path fill="none" stroke="black" d="M200.3,-218.472C209.94,-208.234 222.57,-193.92 232,-180 265.51,-130.532 294.998,-65.8074 307.976,-35.7219"/>
</g>
<!-- Classcom.adwo.adsdk -->
<g id="node4" class="node"><title>Classcom.adwo.adsdk</title>
<ellipse fill="none" stroke="black" cx="157" cy="-90" rx="29.795" ry="18"/>
<text text-anchor="middle" x="157" y="-86.3" font-family="Times,serif" font-size="14.00">Class</text>
</g>
<!-- Classcom.adwo.adsdk&#45;&#45;Ecom.adwo.adsdk -->
<g id="edge5" class="edge"><title>Classcom.adwo.adsdk&#45;&#45;Ecom.adwo.adsdk</title>
<path fill="none" stroke="black" d="M162.879,-107.956C164.053,-119.027 164.04,-133.414 162.84,-144.411"/>
</g>
<!-- Classcom.adwo.adsdk&#45;&#45;ncom.adwo.adsdk -->
<g id="edge8" class="edge"><title>Classcom.adwo.adsdk&#45;&#45;ncom.adwo.adsdk</title>
<path fill="none" stroke="black" d="M133.169,-78.8214C107.64,-66.3083 68.0744,-45.0743 45.002,-31.5594"/>
</g>
<!-- Classcom.adwo.adsdk&#45;&#45;ycom.adwo.adsdk -->
<g id="edge11" class="edge"><title>Classcom.adwo.adsdk&#45;&#45;ycom.adwo.adsdk</title>
<path fill="none" stroke="black" d="M140.037,-75.1703C129.051,-63.7749 115.526,-47.5836 106.848,-35.5101"/>
</g>
<!-- Classcom.adwo.adsdk&#45;&#45;bcom.adwo.adsdk -->
<g id="edge14" class="edge"><title>Classcom.adwo.adsdk&#45;&#45;bcom.adwo.adsdk</title>
<path fill="none" stroke="black" d="M154.511,-72.055C155.559,-60.8874 158.491,-46.3427 161.93,-35.307"/>
</g>
<!-- Classcom.adwo.adsdk&#45;&#45;Rcom.adwo.adsdk -->
<g id="edge17" class="edge"><title>Classcom.adwo.adsdk&#45;&#45;Rcom.adwo.adsdk</title>
<path fill="none" stroke="black" d="M170.366,-73.4647C184.763,-60.4951 207.305,-42.2968 223.609,-30.5762"/>
</g>
<!-- Classcom.adwo.adsdk&#45;&#45;mcom.adwo.adsdk -->
<g id="edge20" class="edge"><title>Classcom.adwo.adsdk&#45;&#45;mcom.adwo.adsdk</title>
<path fill="none" stroke="black" d="M178.099,-77.0396C201.014,-66.4569 238.029,-50.4891 270,-36 276.673,-32.9758 283.992,-29.5414 290.917,-26.555"/>
</g>
<!-- Ecom.adwo.adsdk&#45;&#45;Classcom.adwo.adsdk -->
<g id="edge3" class="edge"><title>Ecom.adwo.adsdk&#45;&#45;Classcom.adwo.adsdk</title>
<path fill="none" stroke="black" d="M151.16,-144.411C149.96,-133.414 149.947,-119.027 151.121,-107.956"/>
</g>
<!-- ncom.adwo.adsdk&#45;&#45;Classcom.adwo.adsdk -->
<g id="edge6" class="edge"><title>ncom.adwo.adsdk&#45;&#45;Classcom.adwo.adsdk</title>
<path fill="none" stroke="black" d="M49.4751,-28.5156C74.5675,-40.7486 114.332,-62.0513 137.959,-75.8335"/>
</g>
<!-- ycom.adwo.adsdk&#45;&#45;Classcom.adwo.adsdk -->
<g id="edge9" class="edge"><title>ycom.adwo.adsdk&#45;&#45;Classcom.adwo.adsdk</title>
<path fill="none" stroke="black" d="M115.789,-32.6499C126.782,-44.0295 140.369,-60.2821 149.095,-72.411"/>
</g>
<!-- bcom.adwo.adsdk&#45;&#45;Classcom.adwo.adsdk -->
<g id="edge12" class="edge"><title>bcom.adwo.adsdk&#45;&#45;Classcom.adwo.adsdk</title>
<path fill="none" stroke="black" d="M173.472,-36.1239C172.407,-47.2919 169.478,-61.7791 166.048,-72.7646"/>
</g>
<!-- Rcom.adwo.adsdk&#45;&#45;Classcom.adwo.adsdk -->
<g id="edge15" class="edge"><title>Rcom.adwo.adsdk&#45;&#45;Classcom.adwo.adsdk</title>
<path fill="none" stroke="black" d="M230.132,-34.0853C216.135,-46.7431 194.069,-64.6092 177.691,-76.4854"/>
</g>
<!-- mcom.adwo.adsdk&#45;&#45;Classcom.adwo.adsdk -->
<g id="edge18" class="edge"><title>mcom.adwo.adsdk&#45;&#45;Classcom.adwo.adsdk</title>
<path fill="none" stroke="black" d="M297.248,-31.719C294.176,-33.177 291.022,-34.6305 288,-36 252.032,-52.3002 209.681,-70.472 182.84,-80.7422"/>
</g>
</g>
</svg>
