<?xml version="1.0" encoding="UTF-8" standalone="no"?>
<!DOCTYPE svg PUBLIC "-//W3C//DTD SVG 1.1//EN"
 "http://www.w3.org/Graphics/SVG/1.1/DTD/svg11.dtd">
<!-- Generated by graphviz version 2.38.0 (20140413.2041)
 -->
<!-- Title: %3 Pages: 1 -->
<svg width="678pt" height="441pt"
 viewBox="0.00 0.00 677.84 441.00" xmlns="http://www.w3.org/2000/svg" xmlns:xlink="http://www.w3.org/1999/xlink">
<g id="graph0" class="graph" transform="scale(1 1) rotate(0) translate(4 437)">
<title>%3</title>
<polygon fill="white" stroke="none" points="-4,4 -4,-437 673.839,-437 673.839,4 -4,4"/>
<!-- packages -->
<g id="node1" class="node"><title>packages</title>
<polygon fill="none" stroke="black" points="372.293,-433 306.293,-433 306.293,-367 372.293,-367 372.293,-433"/>
<text text-anchor="middle" x="339.293" y="-396.3" font-family="Times,serif" font-size="14.00">packages</text>
</g>
<!-- com.adwo.adsdk -->
<g id="node2" class="node"><title>com.adwo.adsdk</title>
<ellipse fill="red" stroke="black" cx="272.293" cy="-313" rx="70.6878" ry="18"/>
<text text-anchor="middle" x="272.293" y="-309.3" font-family="Times,serif" font-size="14.00">com.adwo.adsdk</text>
</g>
<!-- packages&#45;&#45;com.adwo.adsdk -->
<g id="edge1" class="edge"><title>packages&#45;&#45;com.adwo.adsdk</title>
<path fill="none" stroke="black" d="M313.963,-366.865C304.328,-354.642 293.733,-341.2 285.638,-330.93"/>
</g>
<!-- com.test -->
<g id="node11" class="node"><title>com.test</title>
<ellipse fill="none" stroke="black" cx="406.293" cy="-313" rx="40.8928" ry="18"/>
<text text-anchor="middle" x="406.293" y="-309.3" font-family="Times,serif" font-size="14.00">com.test</text>
</g>
<!-- packages&#45;&#45;com.test -->
<g id="edge10" class="edge"><title>packages&#45;&#45;com.test</title>
<path fill="none" stroke="black" d="M364.623,-366.865C374.406,-354.454 385.179,-340.786 393.32,-330.458"/>
</g>
<!-- classcom.adwo.adsdk -->
<g id="node3" class="node"><title>classcom.adwo.adsdk</title>
<polygon fill="none" stroke="black" points="284.793,-259 241.793,-259 241.793,-216 284.793,-216 284.793,-259"/>
<text text-anchor="middle" x="263.293" y="-233.8" font-family="Times,serif" font-size="14.00">class</text>
</g>
<!-- com.adwo.adsdk&#45;&#45;classcom.adwo.adsdk -->
<g id="edge2" class="edge"><title>com.adwo.adsdk&#45;&#45;classcom.adwo.adsdk</title>
<path fill="none" stroke="black" d="M270.206,-294.953C268.897,-284.266 267.202,-270.424 265.818,-259.12"/>
</g>
<!-- AdwoAdBroswerActivity -->
<g id="node4" class="node"><title>AdwoAdBroswerActivity</title>
<ellipse fill="red" stroke="black" cx="227.293" cy="-162" rx="101.282" ry="18"/>
<text text-anchor="middle" x="227.293" y="-158.3" font-family="Times,serif" font-size="14.00">AdwoAdBroswerActivity</text>
</g>
<!-- classcom.adwo.adsdk&#45;&#45;AdwoAdBroswerActivity -->
<g id="edge3" class="edge"><title>classcom.adwo.adsdk&#45;&#45;AdwoAdBroswerActivity</title>
<path fill="none" stroke="black" d="M253.073,-215.634C247.585,-204.43 240.903,-190.786 235.716,-180.198"/>
</g>
<!-- importsAdwoAdBroswerActivity -->
<g id="node5" class="node"><title>importsAdwoAdBroswerActivity</title>
<ellipse fill="none" stroke="black" cx="102.293" cy="-90" rx="38.1938" ry="18"/>
<text text-anchor="middle" x="102.293" y="-86.3" font-family="Times,serif" font-size="14.00">imports</text>
</g>
<!-- AdwoAdBroswerActivity&#45;&#45;importsAdwoAdBroswerActivity -->
<g id="edge4" class="edge"><title>AdwoAdBroswerActivity&#45;&#45;importsAdwoAdBroswerActivity</title>
<path fill="none" stroke="black" d="M197.986,-144.588C176.049,-132.303 146.427,-115.715 125.979,-104.264"/>
</g>
<!-- methodsAdwoAdBroswerActivity -->
<g id="node7" class="node"><title>methodsAdwoAdBroswerActivity</title>
<ellipse fill="none" stroke="black" cx="225.293" cy="-90" rx="40.8928" ry="18"/>
<text text-anchor="middle" x="225.293" y="-86.3" font-family="Times,serif" font-size="14.00">methods</text>
</g>
<!-- AdwoAdBroswerActivity&#45;&#45;methodsAdwoAdBroswerActivity -->
<g id="edge6" class="edge"><title>AdwoAdBroswerActivity&#45;&#45;methodsAdwoAdBroswerActivity</title>
<path fill="none" stroke="black" d="M226.799,-143.697C226.489,-132.846 226.091,-118.917 225.782,-108.104"/>
</g>
<!-- attributesAdwoAdBroswerActivity -->
<g id="node9" class="node"><title>attributesAdwoAdBroswerActivity</title>
<ellipse fill="none" stroke="black" cx="327.293" cy="-90" rx="43.5923" ry="18"/>
<text text-anchor="middle" x="327.293" y="-86.3" font-family="Times,serif" font-size="14.00">attributes</text>
</g>
<!-- AdwoAdBroswerActivity&#45;&#45;attributesAdwoAdBroswerActivity -->
<g id="edge8" class="edge"><title>AdwoAdBroswerActivity&#45;&#45;attributesAdwoAdBroswerActivity</title>
<path fill="none" stroke="black" d="M250.992,-144.411C267.741,-132.686 289.995,-117.108 306.145,-105.804"/>
</g>
<!-- com.adwo.adsdk.H -->
<g id="node6" class="node"><title>com.adwo.adsdk.H</title>
<ellipse fill="none" stroke="black" cx="79.293" cy="-18" rx="79.0865" ry="18"/>
<text text-anchor="middle" x="79.293" y="-14.3" font-family="Times,serif" font-size="14.00">com.adwo.adsdk.H</text>
</g>
<!-- importsAdwoAdBroswerActivity&#45;&#45;com.adwo.adsdk.H -->
<g id="edge5" class="edge"><title>importsAdwoAdBroswerActivity&#45;&#45;com.adwo.adsdk.H</title>
<path fill="none" stroke="black" d="M96.7253,-72.055C93.1623,-61.2111 88.5531,-47.183 84.9691,-36.2753"/>
</g>
<!-- Constructor -->
<g id="node8" class="node"><title>Constructor</title>
<ellipse fill="red" stroke="black" cx="228.293" cy="-18" rx="51.9908" ry="18"/>
<text text-anchor="middle" x="228.293" y="-14.3" font-family="Times,serif" font-size="14.00">Constructor</text>
</g>
<!-- methodsAdwoAdBroswerActivity&#45;&#45;Constructor -->
<g id="edge7" class="edge"><title>methodsAdwoAdBroswerActivity&#45;&#45;Constructor</title>
<path fill="none" stroke="black" d="M226.035,-71.6966C226.5,-60.8463 227.097,-46.9167 227.56,-36.1043"/>
</g>
<!-- d -->
<g id="node10" class="node"><title>d</title>
<ellipse fill="red" stroke="black" cx="327.293" cy="-18" rx="27" ry="18"/>
<text text-anchor="middle" x="327.293" y="-14.3" font-family="Times,serif" font-size="14.00">d</text>
</g>
<!-- attributesAdwoAdBroswerActivity&#45;&#45;d -->
<g id="edge9" class="edge"><title>attributesAdwoAdBroswerActivity&#45;&#45;d</title>
<path fill="none" stroke="black" d="M327.293,-71.6966C327.293,-60.8463 327.293,-46.9167 327.293,-36.1043"/>
</g>
<!-- classcom.test -->
<g id="node12" class="node"><title>classcom.test</title>
<polygon fill="none" stroke="black" points="445.793,-259 402.793,-259 402.793,-216 445.793,-216 445.793,-259"/>
<text text-anchor="middle" x="424.293" y="-233.8" font-family="Times,serif" font-size="14.00">class</text>
</g>
<!-- com.test&#45;&#45;classcom.test -->
<g id="edge11" class="edge"><title>com.test&#45;&#45;classcom.test</title>
<path fill="none" stroke="black" d="M410.468,-294.953C413.085,-284.266 416.475,-270.424 419.243,-259.12"/>
</g>
<!-- NeverHearder -->
<g id="node13" class="node"><title>NeverHearder</title>
<ellipse fill="red" stroke="black" cx="475.293" cy="-162" rx="60.3893" ry="18"/>
<text text-anchor="middle" x="475.293" y="-158.3" font-family="Times,serif" font-size="14.00">NeverHearder</text>
</g>
<!-- classcom.test&#45;&#45;NeverHearder -->
<g id="edge12" class="edge"><title>classcom.test&#45;&#45;NeverHearder</title>
<path fill="none" stroke="black" d="M438.771,-215.634C446.663,-204.26 456.3,-190.372 463.692,-179.719"/>
</g>
<!-- importsNeverHearder -->
<g id="node14" class="node"><title>importsNeverHearder</title>
<ellipse fill="none" stroke="black" cx="427.293" cy="-90" rx="38.1938" ry="18"/>
<text text-anchor="middle" x="427.293" y="-86.3" font-family="Times,serif" font-size="14.00">imports</text>
</g>
<!-- NeverHearder&#45;&#45;importsNeverHearder -->
<g id="edge13" class="edge"><title>NeverHearder&#45;&#45;importsNeverHearder</title>
<path fill="none" stroke="black" d="M463.674,-144.055C456.016,-132.887 446.042,-118.343 438.475,-107.307"/>
</g>
<!-- methodsNeverHearder -->
<g id="node15" class="node"><title>methodsNeverHearder</title>
<ellipse fill="none" stroke="black" cx="524.293" cy="-90" rx="40.8928" ry="18"/>
<text text-anchor="middle" x="524.293" y="-86.3" font-family="Times,serif" font-size="14.00">methods</text>
</g>
<!-- NeverHearder&#45;&#45;methodsNeverHearder -->
<g id="edge14" class="edge"><title>NeverHearder&#45;&#45;methodsNeverHearder</title>
<path fill="none" stroke="black" d="M487.154,-144.055C494.972,-132.887 505.153,-118.343 512.878,-107.307"/>
</g>
<!-- attributesNeverHearder -->
<g id="node16" class="node"><title>attributesNeverHearder</title>
<ellipse fill="none" stroke="black" cx="626.293" cy="-90" rx="43.5923" ry="18"/>
<text text-anchor="middle" x="626.293" y="-86.3" font-family="Times,serif" font-size="14.00">attributes</text>
</g>
<!-- NeverHearder&#45;&#45;attributesNeverHearder -->
<g id="edge15" class="edge"><title>NeverHearder&#45;&#45;attributesNeverHearder</title>
<path fill="none" stroke="black" d="M506.58,-146.496C533.532,-134.002 572.09,-116.127 598.101,-104.069"/>
</g>
</g>
</svg>
