<?xml version="1.0" encoding="UTF-8" standalone="no"?>
<!DOCTYPE svg PUBLIC "-//W3C//DTD SVG 1.1//EN"
 "http://www.w3.org/Graphics/SVG/1.1/DTD/svg11.dtd">
<!-- Generated by graphviz version 2.38.0 (20140413.2041)
 -->
<!-- Title: %3 Pages: 1 -->
<svg width="954pt" height="441pt"
 viewBox="0.00 0.00 954.29 441.00" xmlns="http://www.w3.org/2000/svg" xmlns:xlink="http://www.w3.org/1999/xlink">
<g id="graph0" class="graph" transform="scale(1 1) rotate(0) translate(4 437)">
<title>%3</title>
<polygon fill="white" stroke="none" points="-4,4 -4,-437 950.293,-437 950.293,4 -4,4"/>
<!-- packages -->
<g id="node1" class="node"><title>packages</title>
<polygon fill="none" stroke="black" points="450.293,-433 384.293,-433 384.293,-367 450.293,-367 450.293,-433"/>
<text text-anchor="middle" x="417.293" y="-396.3" font-family="Times,serif" font-size="14.00">packages</text>
</g>
<!-- com.adwo.adsdk -->
<g id="node2" class="node"><title>com.adwo.adsdk</title>
<ellipse fill="red" stroke="black" cx="417.293" cy="-313" rx="70.6878" ry="18"/>
<text text-anchor="middle" x="417.293" y="-309.3" font-family="Times,serif" font-size="14.00">com.adwo.adsdk</text>
</g>
<!-- packages&#45;&#45;com.adwo.adsdk -->
<g id="edge1" class="edge"><title>packages&#45;&#45;com.adwo.adsdk</title>
<path fill="none" stroke="black" d="M417.293,-366.865C417.293,-354.83 417.293,-341.614 417.293,-331.406"/>
</g>
<!-- classcom.adwo.adsdk -->
<g id="node3" class="node"><title>classcom.adwo.adsdk</title>
<polygon fill="none" stroke="black" points="438.793,-259 395.793,-259 395.793,-216 438.793,-216 438.793,-259"/>
<text text-anchor="middle" x="417.293" y="-233.8" font-family="Times,serif" font-size="14.00">class</text>
</g>
<!-- com.adwo.adsdk&#45;&#45;classcom.adwo.adsdk -->
<g id="edge2" class="edge"><title>com.adwo.adsdk&#45;&#45;classcom.adwo.adsdk</title>
<path fill="none" stroke="black" d="M417.293,-294.953C417.293,-284.266 417.293,-270.424 417.293,-259.12"/>
</g>
<!-- AdwoAdBroswerActivity -->
<g id="node4" class="node"><title>AdwoAdBroswerActivity</title>
<ellipse fill="red" stroke="black" cx="417.293" cy="-162" rx="101.282" ry="18"/>
<text text-anchor="middle" x="417.293" y="-158.3" font-family="Times,serif" font-size="14.00">AdwoAdBroswerActivity</text>
</g>
<!-- classcom.adwo.adsdk&#45;&#45;AdwoAdBroswerActivity -->
<g id="edge3" class="edge"><title>classcom.adwo.adsdk&#45;&#45;AdwoAdBroswerActivity</title>
<path fill="none" stroke="black" d="M417.293,-215.634C417.293,-204.43 417.293,-190.786 417.293,-180.198"/>
</g>
<!-- importsAdwoAdBroswerActivity -->
<g id="node5" class="node"><title>importsAdwoAdBroswerActivity</title>
<ellipse fill="none" stroke="black" cx="200.293" cy="-90" rx="38.1938" ry="18"/>
<text text-anchor="middle" x="200.293" y="-86.3" font-family="Times,serif" font-size="14.00">imports</text>
</g>
<!-- AdwoAdBroswerActivity&#45;&#45;importsAdwoAdBroswerActivity -->
<g id="edge4" class="edge"><title>AdwoAdBroswerActivity&#45;&#45;importsAdwoAdBroswerActivity</title>
<path fill="none" stroke="black" d="M370.741,-145.983C328.524,-132.365 267.489,-112.676 231.063,-100.926"/>
</g>
<!-- methodsAdwoAdBroswerActivity -->
<g id="node7" class="node"><title>methodsAdwoAdBroswerActivity</title>
<ellipse fill="none" stroke="black" cx="417.293" cy="-90" rx="40.8928" ry="18"/>
<text text-anchor="middle" x="417.293" y="-86.3" font-family="Times,serif" font-size="14.00">methods</text>
</g>
<!-- AdwoAdBroswerActivity&#45;&#45;methodsAdwoAdBroswerActivity -->
<g id="edge6" class="edge"><title>AdwoAdBroswerActivity&#45;&#45;methodsAdwoAdBroswerActivity</title>
<path fill="none" stroke="black" d="M417.293,-143.697C417.293,-132.846 417.293,-118.917 417.293,-108.104"/>
</g>
<!-- attributesAdwoAdBroswerActivity -->
<g id="node9" class="node"><title>attributesAdwoAdBroswerActivity</title>
<ellipse fill="none" stroke="black" cx="775.293" cy="-90" rx="43.5923" ry="18"/>
<text text-anchor="middle" x="775.293" y="-86.3" font-family="Times,serif" font-size="14.00">attributes</text>
</g>
<!-- AdwoAdBroswerActivity&#45;&#45;attributesAdwoAdBroswerActivity -->
<g id="edge8" class="edge"><title>AdwoAdBroswerActivity&#45;&#45;attributesAdwoAdBroswerActivity</title>
<path fill="none" stroke="black" d="M482.956,-148.161C557.24,-133.636 675.762,-110.461 736.555,-98.5744"/>
</g>
<!-- com.adwo.adsdk.H -->
<g id="node6" class="node"><title>com.adwo.adsdk.H</title>
<ellipse fill="none" stroke="black" cx="79.293" cy="-18" rx="79.0865" ry="18"/>
<text text-anchor="middle" x="79.293" y="-14.3" font-family="Times,serif" font-size="14.00">com.adwo.adsdk.H</text>
</g>
<!-- importsAdwoAdBroswerActivity&#45;&#45;com.adwo.adsdk.H -->
<g id="edge5" class="edge"><title>importsAdwoAdBroswerActivity&#45;&#45;com.adwo.adsdk.H</title>
<path fill="none" stroke="black" d="M176.963,-75.5033C156.91,-63.9025 127.962,-47.1558 106.788,-34.906"/>
</g>
<!-- AdwoAdBrowserActivity.a((AdwoAdBrowserActivity)this.a).c() -->
<g id="node8" class="node"><title>AdwoAdBrowserActivity.a((AdwoAdBrowserActivity)this.a).c()</title>
<ellipse fill="none" stroke="black" cx="417.293" cy="-18" rx="241.257" ry="18"/>
<text text-anchor="middle" x="417.293" y="-14.3" font-family="Times,serif" font-size="14.00">AdwoAdBrowserActivity.a((AdwoAdBrowserActivity)this.a).c()</text>
</g>
<!-- methodsAdwoAdBroswerActivity&#45;&#45;AdwoAdBrowserActivity.a((AdwoAdBrowserActivity)this.a).c() -->
<g id="edge7" class="edge"><title>methodsAdwoAdBroswerActivity&#45;&#45;AdwoAdBrowserActivity.a((AdwoAdBrowserActivity)this.a).c()</title>
<path fill="none" stroke="black" d="M417.293,-71.6966C417.293,-60.8463 417.293,-46.9167 417.293,-36.1043"/>
</g>
<!-- d -->
<g id="node10" class="node"><title>d</title>
<ellipse fill="red" stroke="black" cx="703.293" cy="-18" rx="27" ry="18"/>
<text text-anchor="middle" x="703.293" y="-14.3" font-family="Times,serif" font-size="14.00">d</text>
</g>
<!-- attributesAdwoAdBroswerActivity&#45;&#45;d -->
<g id="edge9" class="edge"><title>attributesAdwoAdBroswerActivity&#45;&#45;d</title>
<path fill="none" stroke="black" d="M758.955,-73.1159C746.674,-61.1759 729.989,-44.9545 718.097,-33.3927"/>
</g>
<!-- a -->
<g id="node11" class="node"><title>a</title>
<ellipse fill="none" stroke="black" cx="775.293" cy="-18" rx="27" ry="18"/>
<text text-anchor="middle" x="775.293" y="-14.3" font-family="Times,serif" font-size="14.00">a</text>
</g>
<!-- attributesAdwoAdBroswerActivity&#45;&#45;a -->
<g id="edge10" class="edge"><title>attributesAdwoAdBroswerActivity&#45;&#45;a</title>
<path fill="none" stroke="black" d="M775.293,-71.6966C775.293,-60.8463 775.293,-46.9167 775.293,-36.1043"/>
</g>
<!-- c -->
<g id="node12" class="node"><title>c</title>
<ellipse fill="none" stroke="black" cx="847.293" cy="-18" rx="27" ry="18"/>
<text text-anchor="middle" x="847.293" y="-14.3" font-family="Times,serif" font-size="14.00">c</text>
</g>
<!-- attributesAdwoAdBroswerActivity&#45;&#45;c -->
<g id="edge11" class="edge"><title>attributesAdwoAdBroswerActivity&#45;&#45;c</title>
<path fill="none" stroke="black" d="M791.631,-73.1159C803.912,-61.1759 820.597,-44.9545 832.489,-33.3927"/>
</g>
<!-- b -->
<g id="node13" class="node"><title>b</title>
<ellipse fill="none" stroke="black" cx="919.293" cy="-18" rx="27" ry="18"/>
<text text-anchor="middle" x="919.293" y="-14.3" font-family="Times,serif" font-size="14.00">b</text>
</g>
<!-- attributesAdwoAdBroswerActivity&#45;&#45;b -->
<g id="edge12" class="edge"><title>attributesAdwoAdBroswerActivity&#45;&#45;b</title>
<path fill="none" stroke="black" d="M802.378,-75.8335C830.078,-62.3681 872.546,-41.7241 897.953,-29.3735"/>
</g>
</g>
</svg>
