<?xml version="1.0" encoding="UTF-8" standalone="no"?>
<!DOCTYPE svg PUBLIC "-//W3C//DTD SVG 1.1//EN"
 "http://www.w3.org/Graphics/SVG/1.1/DTD/svg11.dtd">
<!-- Generated by graphviz version 2.38.0 (20140413.2041)
 -->
<!-- Title: %3 Pages: 1 -->
<svg width="150pt" height="362pt"
 viewBox="0.00 0.00 149.69 362.00" xmlns="http://www.w3.org/2000/svg" xmlns:xlink="http://www.w3.org/1999/xlink">
<g id="graph0" class="graph" transform="scale(1 1) rotate(0) translate(4 358)">
<title>%3</title>
<polygon fill="white" stroke="none" points="-4,4 -4,-358 145.687,-358 145.687,4 -4,4"/>
<!-- packages -->
<g id="node1" class="node"><title>packages</title>
<polygon fill="none" stroke="black" points="103.844,-354 37.8437,-354 37.8437,-288 103.844,-288 103.844,-354"/>
<text text-anchor="middle" x="70.8437" y="-317.3" font-family="Times,serif" font-size="14.00">packages</text>
</g>
<!-- com.adsdk.adwo -->
<g id="node2" class="node"><title>com.adsdk.adwo</title>
<ellipse fill="none" stroke="black" cx="70.8437" cy="-234" rx="70.6878" ry="18"/>
<text text-anchor="middle" x="70.8437" y="-230.3" font-family="Times,serif" font-size="14.00">com.adsdk.adwo</text>
</g>
<!-- packages&#45;&#45;com.adsdk.adwo -->
<g id="edge1" class="edge"><title>packages&#45;&#45;com.adsdk.adwo</title>
<path fill="none" stroke="black" d="M70.8437,-287.865C70.8437,-275.83 70.8437,-262.614 70.8437,-252.406"/>
</g>
<!-- filecom.adsdk.adwo -->
<g id="node3" class="node"><title>filecom.adsdk.adwo</title>
<ellipse fill="none" stroke="black" cx="70.8437" cy="-162" rx="27" ry="18"/>
<text text-anchor="middle" x="70.8437" y="-158.3" font-family="Times,serif" font-size="14.00">file</text>
</g>
<!-- com.adsdk.adwo&#45;&#45;filecom.adsdk.adwo -->
<g id="edge2" class="edge"><title>com.adsdk.adwo&#45;&#45;filecom.adsdk.adwo</title>
<path fill="none" stroke="black" d="M70.8437,-215.697C70.8437,-204.846 70.8437,-190.917 70.8437,-180.104"/>
</g>
<!-- attributecom.adsdk.adwo -->
<g id="node4" class="node"><title>attributecom.adsdk.adwo</title>
<ellipse fill="none" stroke="black" cx="70.8437" cy="-90" rx="40.0939" ry="18"/>
<text text-anchor="middle" x="70.8437" y="-86.3" font-family="Times,serif" font-size="14.00">attribute</text>
</g>
<!-- filecom.adsdk.adwo&#45;&#45;attributecom.adsdk.adwo -->
<g id="edge3" class="edge"><title>filecom.adsdk.adwo&#45;&#45;attributecom.adsdk.adwo</title>
<path fill="none" stroke="black" d="M70.8437,-143.697C70.8437,-132.846 70.8437,-118.917 70.8437,-108.104"/>
</g>
<!-- d -->
<g id="node5" class="node"><title>d</title>
<ellipse fill="yellow" stroke="black" cx="70.8437" cy="-18" rx="27" ry="18"/>
<text text-anchor="middle" x="70.8437" y="-14.3" font-family="Times,serif" font-size="14.00">d</text>
</g>
<!-- attributecom.adsdk.adwo&#45;&#45;d -->
<g id="edge4" class="edge"><title>attributecom.adsdk.adwo&#45;&#45;d</title>
<path fill="none" stroke="black" d="M70.8437,-71.6966C70.8437,-60.8463 70.8437,-46.9167 70.8437,-36.1043"/>
</g>
</g>
</svg>
