<?xml version="1.0" encoding="UTF-8" standalone="no"?>
<!DOCTYPE svg PUBLIC "-//W3C//DTD SVG 1.1//EN"
 "http://www.w3.org/Graphics/SVG/1.1/DTD/svg11.dtd">
<!-- Generated by graphviz version 2.38.0 (20140413.2041)
 -->
<!-- Title: %3 Pages: 1 -->
<svg width="379pt" height="441pt"
 viewBox="0.00 0.00 378.84 441.00" xmlns="http://www.w3.org/2000/svg" xmlns:xlink="http://www.w3.org/1999/xlink">
<g id="graph0" class="graph" transform="scale(1 1) rotate(0) translate(4 437)">
<title>%3</title>
<polygon fill="white" stroke="none" points="-4,4 -4,-437 374.839,-437 374.839,4 -4,4"/>
<!-- packages -->
<g id="node1" class="node"><title>packages</title>
<polygon fill="none" stroke="black" points="258.293,-433 192.293,-433 192.293,-367 258.293,-367 258.293,-433"/>
<text text-anchor="middle" x="225.293" y="-396.3" font-family="Times,serif" font-size="14.00">packages</text>
</g>
<!-- com.adwo.adsdk -->
<g id="node2" class="node"><title>com.adwo.adsdk</title>
<ellipse fill="red" stroke="black" cx="225.293" cy="-313" rx="70.6878" ry="18"/>
<text text-anchor="middle" x="225.293" y="-309.3" font-family="Times,serif" font-size="14.00">com.adwo.adsdk</text>
</g>
<!-- packages&#45;&#45;com.adwo.adsdk -->
<g id="edge1" class="edge"><title>packages&#45;&#45;com.adwo.adsdk</title>
<path fill="none" stroke="black" d="M225.293,-366.865C225.293,-354.83 225.293,-341.614 225.293,-331.406"/>
</g>
<!-- classcom.adwo.adsdk -->
<g id="node3" class="node"><title>classcom.adwo.adsdk</title>
<polygon fill="none" stroke="black" points="246.793,-259 203.793,-259 203.793,-216 246.793,-216 246.793,-259"/>
<text text-anchor="middle" x="225.293" y="-233.8" font-family="Times,serif" font-size="14.00">class</text>
</g>
<!-- com.adwo.adsdk&#45;&#45;classcom.adwo.adsdk -->
<g id="edge2" class="edge"><title>com.adwo.adsdk&#45;&#45;classcom.adwo.adsdk</title>
<path fill="none" stroke="black" d="M225.293,-294.953C225.293,-284.266 225.293,-270.424 225.293,-259.12"/>
</g>
<!-- AdwoAdBroswerActivity -->
<g id="node4" class="node"><title>AdwoAdBroswerActivity</title>
<ellipse fill="red" stroke="black" cx="225.293" cy="-162" rx="101.282" ry="18"/>
<text text-anchor="middle" x="225.293" y="-158.3" font-family="Times,serif" font-size="14.00">AdwoAdBroswerActivity</text>
</g>
<!-- classcom.adwo.adsdk&#45;&#45;AdwoAdBroswerActivity -->
<g id="edge3" class="edge"><title>classcom.adwo.adsdk&#45;&#45;AdwoAdBroswerActivity</title>
<path fill="none" stroke="black" d="M225.293,-215.634C225.293,-204.43 225.293,-190.786 225.293,-180.198"/>
</g>
<!-- importsAdwoAdBroswerActivity -->
<g id="node5" class="node"><title>importsAdwoAdBroswerActivity</title>
<ellipse fill="none" stroke="black" cx="102.293" cy="-90" rx="38.1938" ry="18"/>
<text text-anchor="middle" x="102.293" y="-86.3" font-family="Times,serif" font-size="14.00">imports</text>
</g>
<!-- AdwoAdBroswerActivity&#45;&#45;importsAdwoAdBroswerActivity -->
<g id="edge4" class="edge"><title>AdwoAdBroswerActivity&#45;&#45;importsAdwoAdBroswerActivity</title>
<path fill="none" stroke="black" d="M196.455,-144.588C175.011,-132.384 146.104,-115.933 125.998,-104.491"/>
</g>
<!-- methodsAdwoAdBroswerActivity -->
<g id="node7" class="node"><title>methodsAdwoAdBroswerActivity</title>
<ellipse fill="none" stroke="black" cx="225.293" cy="-90" rx="40.8928" ry="18"/>
<text text-anchor="middle" x="225.293" y="-86.3" font-family="Times,serif" font-size="14.00">methods</text>
</g>
<!-- AdwoAdBroswerActivity&#45;&#45;methodsAdwoAdBroswerActivity -->
<g id="edge6" class="edge"><title>AdwoAdBroswerActivity&#45;&#45;methodsAdwoAdBroswerActivity</title>
<path fill="none" stroke="black" d="M225.293,-143.697C225.293,-132.846 225.293,-118.917 225.293,-108.104"/>
</g>
<!-- attributesAdwoAdBroswerActivity -->
<g id="node9" class="node"><title>attributesAdwoAdBroswerActivity</title>
<ellipse fill="none" stroke="black" cx="327.293" cy="-90" rx="43.5923" ry="18"/>
<text text-anchor="middle" x="327.293" y="-86.3" font-family="Times,serif" font-size="14.00">attributes</text>
</g>
<!-- AdwoAdBroswerActivity&#45;&#45;attributesAdwoAdBroswerActivity -->
<g id="edge8" class="edge"><title>AdwoAdBroswerActivity&#45;&#45;attributesAdwoAdBroswerActivity</title>
<path fill="none" stroke="black" d="M249.466,-144.411C266.55,-132.686 289.249,-117.108 305.722,-105.804"/>
</g>
<!-- com.adwo.adsdk.H -->
<g id="node6" class="node"><title>com.adwo.adsdk.H</title>
<ellipse fill="none" stroke="black" cx="79.293" cy="-18" rx="79.0865" ry="18"/>
<text text-anchor="middle" x="79.293" y="-14.3" font-family="Times,serif" font-size="14.00">com.adwo.adsdk.H</text>
</g>
<!-- importsAdwoAdBroswerActivity&#45;&#45;com.adwo.adsdk.H -->
<g id="edge5" class="edge"><title>importsAdwoAdBroswerActivity&#45;&#45;com.adwo.adsdk.H</title>
<path fill="none" stroke="black" d="M96.7253,-72.055C93.1623,-61.2111 88.5531,-47.183 84.9691,-36.2753"/>
</g>
<!-- Constructor -->
<g id="node8" class="node"><title>Constructor</title>
<ellipse fill="red" stroke="black" cx="228.293" cy="-18" rx="51.9908" ry="18"/>
<text text-anchor="middle" x="228.293" y="-14.3" font-family="Times,serif" font-size="14.00">Constructor</text>
</g>
<!-- methodsAdwoAdBroswerActivity&#45;&#45;Constructor -->
<g id="edge7" class="edge"><title>methodsAdwoAdBroswerActivity&#45;&#45;Constructor</title>
<path fill="none" stroke="black" d="M226.035,-71.6966C226.5,-60.8463 227.097,-46.9167 227.56,-36.1043"/>
</g>
<!-- d -->
<g id="node10" class="node"><title>d</title>
<ellipse fill="red" stroke="black" cx="327.293" cy="-18" rx="27" ry="18"/>
<text text-anchor="middle" x="327.293" y="-14.3" font-family="Times,serif" font-size="14.00">d</text>
</g>
<!-- attributesAdwoAdBroswerActivity&#45;&#45;d -->
<g id="edge9" class="edge"><title>attributesAdwoAdBroswerActivity&#45;&#45;d</title>
<path fill="none" stroke="black" d="M327.293,-71.6966C327.293,-60.8463 327.293,-46.9167 327.293,-36.1043"/>
</g>
</g>
</svg>
