<?xml version="1.0" encoding="UTF-8" standalone="no"?>
<!DOCTYPE svg PUBLIC "-//W3C//DTD SVG 1.1//EN"
 "http://www.w3.org/Graphics/SVG/1.1/DTD/svg11.dtd">
<!-- Generated by graphviz version 2.38.0 (20140413.2041)
 -->
<!-- Title: %3 Pages: 1 -->
<svg width="547pt" height="290pt"
 viewBox="0.00 0.00 546.93 290.00" xmlns="http://www.w3.org/2000/svg" xmlns:xlink="http://www.w3.org/1999/xlink">
<g id="graph0" class="graph" transform="scale(1 1) rotate(0) translate(4 286)">
<title>%3</title>
<polygon fill="white" stroke="none" points="-4,4 -4,-286 542.934,-286 542.934,4 -4,4"/>
<!-- packages -->
<g id="node1" class="node"><title>packages</title>
<polygon fill="none" stroke="black" points="233.296,-282 167.296,-282 167.296,-216 233.296,-216 233.296,-282"/>
<text text-anchor="middle" x="200.296" y="-245.3" font-family="Times,serif" font-size="14.00">packages</text>
</g>
<!-- com.adsdk.adwo -->
<g id="node2" class="node"><title>com.adsdk.adwo</title>
<ellipse fill="none" stroke="black" cx="135.296" cy="-162" rx="70.6878" ry="18"/>
<text text-anchor="middle" x="135.296" y="-158.3" font-family="Times,serif" font-size="14.00">com.adsdk.adwo</text>
</g>
<!-- packages&#45;&#45;com.adsdk.adwo -->
<g id="edge1" class="edge"><title>packages&#45;&#45;com.adsdk.adwo</title>
<path fill="none" stroke="black" d="M175.723,-215.865C166.375,-203.642 156.097,-190.2 148.243,-179.93"/>
</g>
<!-- com.sdk -->
<g id="node7" class="node"><title>com.sdk</title>
<ellipse fill="none" stroke="black" cx="265.296" cy="-162" rx="40.8928" ry="18"/>
<text text-anchor="middle" x="265.296" y="-158.3" font-family="Times,serif" font-size="14.00">com.sdk</text>
</g>
<!-- packages&#45;&#45;com.sdk -->
<g id="edge6" class="edge"><title>packages&#45;&#45;com.sdk</title>
<path fill="none" stroke="black" d="M224.87,-215.865C234.361,-203.454 244.813,-189.786 252.711,-179.458"/>
</g>
<!-- attribute -->
<g id="node3" class="node"><title>attribute</title>
<ellipse fill="none" stroke="black" cx="40.2964" cy="-90" rx="40.0939" ry="18"/>
<text text-anchor="middle" x="40.2964" y="-86.3" font-family="Times,serif" font-size="14.00">attribute</text>
</g>
<!-- com.adsdk.adwo&#45;&#45;attribute -->
<g id="edge2" class="edge"><title>com.adsdk.adwo&#45;&#45;attribute</title>
<path fill="none" stroke="black" d="M113.263,-144.765C97.2575,-132.971 75.7755,-117.142 60.2694,-105.717"/>
</g>
<!-- method -->
<g id="node5" class="node"><title>method</title>
<ellipse fill="none" stroke="black" cx="143.296" cy="-90" rx="37.8943" ry="18"/>
<text text-anchor="middle" x="143.296" y="-86.3" font-family="Times,serif" font-size="14.00">method</text>
</g>
<!-- com.adsdk.adwo&#45;&#45;method -->
<g id="edge4" class="edge"><title>com.adsdk.adwo&#45;&#45;method</title>
<path fill="none" stroke="black" d="M137.274,-143.697C138.514,-132.846 140.106,-118.917 141.342,-108.104"/>
</g>
<!-- d -->
<g id="node4" class="node"><title>d</title>
<ellipse fill="yellow" stroke="black" cx="37.2964" cy="-18" rx="27" ry="18"/>
<text text-anchor="middle" x="37.2964" y="-14.3" font-family="Times,serif" font-size="14.00">d</text>
</g>
<!-- attribute&#45;&#45;d -->
<g id="edge3" class="edge"><title>attribute&#45;&#45;d</title>
<path fill="none" stroke="black" d="M39.5549,-71.6966C39.0898,-60.8463 38.4929,-46.9167 38.0295,-36.1043"/>
</g>
<!-- toString(var X) -->
<g id="node6" class="node"><title>toString(var X)</title>
<ellipse fill="red" stroke="black" cx="147.296" cy="-18" rx="64.9885" ry="18"/>
<text text-anchor="middle" x="147.296" y="-14.3" font-family="Times,serif" font-size="14.00">toString(var X)</text>
</g>
<!-- method&#45;&#45;toString(var X) -->
<g id="edge5" class="edge"><title>method&#45;&#45;toString(var X)</title>
<path fill="none" stroke="black" d="M144.285,-71.6966C144.905,-60.8463 145.701,-46.9167 146.319,-36.1043"/>
</g>
<!-- URL -->
<g id="node8" class="node"><title>URL</title>
<ellipse fill="none" stroke="black" cx="265.296" cy="-90" rx="28.6953" ry="18"/>
<text text-anchor="middle" x="265.296" y="-86.3" font-family="Times,serif" font-size="14.00">URL</text>
</g>
<!-- com.sdk&#45;&#45;URL -->
<g id="edge7" class="edge"><title>com.sdk&#45;&#45;URL</title>
<path fill="none" stroke="black" d="M265.296,-143.697C265.296,-132.846 265.296,-118.917 265.296,-108.104"/>
</g>
<!-- https -->
<g id="node10" class="node"><title>https</title>
<ellipse fill="none" stroke="black" cx="265.296" cy="-18" rx="27.8951" ry="18"/>
<text text-anchor="middle" x="265.296" y="-14.3" font-family="Times,serif" font-size="14.00">https</text>
</g>
<!-- URL&#45;&#45;https -->
<g id="edge8" class="edge"><title>URL&#45;&#45;https://bhkjnl.commandandcontrol.cn</title>
<path fill="none" stroke="black" d="M265.296,-71.6966C265.296,-60.8463 265.296,-46.9167 265.296,-36.1043"/>
</g>
<!-- https://bhkjnl.commandandcontrol.cn -->
<g id="node9" class="node"><title>https://bhkjnl.commandandcontrol.cn</title>
<ellipse fill="red" stroke="black" cx="395.296" cy="-249" rx="143.775" ry="18"/>
<text text-anchor="middle" x="395.296" y="-245.3" font-family="Times,serif" font-size="14.00">https://bhkjnl.commandandcontrol.cn</text>
</g>
</g>
</svg>
